<svg id="Capa_1" data-name="Capa 1" xmlns="http://www.w3.org/2000/svg" xmlns:xlink="http://www.w3.org/1999/xlink" viewBox="0 0 256 256"><defs><style>.cls-1,.cls-4{fill:#fff;}.cls-2{fill:url(#Degradado_sin_nombre_6);}.cls-3{fill:#3e93d1;}.cls-4,.cls-5{stroke:#fff;stroke-miterlimit:10;}.cls-5{fill:none;stroke-width:2px;}</style><linearGradient id="Degradado_sin_nombre_6" x1="23.66" y1="128.05" x2="232.51" y2="128.05" gradientUnits="userSpaceOnUse"><stop offset="0" stop-color="#fff"/><stop offset="1" stop-color="#325da8"/></linearGradient></defs><title>icon</title><rect class="cls-1" x="0.16" y="0.13" width="255.84" height="255.84"/><ellipse class="cls-2" cx="128.08" cy="128.05" rx="104.42" ry="103.33"/><ellipse class="cls-3" cx="128.08" cy="128.05" rx="99.57" ry="98.53"/><path class="cls-4" d="M187,105c13.16,42.61-18.33,81.68-58.95,81.68-9.18,0-25.44-5.59-25.44-5.59L71.79,193.42l7.77-30.5S79,162,78.19,160.4c-3.42-6.48-12.09-17-12.09-35.74,0-40.62,39.07-72.11,81.68-58.95A59.68,59.68,0,0,1,187,105Z"/><path class="cls-3" d="M178.71,106.64c12.54,37.46-15,72.17-50.63,72.17-8,0-23-5.14-23-5.14l-25.51,11,7-25.82a23.94,23.94,0,0,1-1.8-2.79c-3-5.61-10.47-14.69-10.47-31,0-35.64,34.71-63.17,72.17-50.63A51.18,51.18,0,0,1,178.71,106.64Z"/><rect class="cls-1" x="153.59" y="111.98" width="16.11" height="30.38" rx="4.03"/><rect class="cls-1" x="86.47" y="112.97" width="16.03" height="30.38" rx="4.01"/><circle class="cls-1" cx="130.11" cy="155.32" r="10.59"/><path class="cls-1" d="M100.77,116.28c-.42-.3,4-23.79,28.12-23.79,22.15,0,26.45,22.78,26.45,22.78l8.68-1s-6.6-30.22-35.75-30.22c-30.68,0-36.36,31.22-36.36,31.22Z"/><path class="cls-5" d="M138.07,158.74s8-.15,13.22-5c4.91-4.52,7.43-14.33,7.43-14.33"/></svg>